{"title":"The Barbarian and the Geisha.mp4.dvd.rip","uid":8925452,"size":1004140462,"categoryP":"video","categoryS":"movies","magnet":"?xt=urn:btih:4c335ee20e612f7c499a0d707c460c436313b30b&amp;dn=The+Barbarian+and+the+Geisha.mp4.dvd.rip&amp;tr=udp%3A%2F%2Ftracker.openbittorrent.com%3A80&amp;tr=udp%3A%2F%2Fopen.demonii.com%3A1337&amp;tr=udp%3A%2F%2Ftracker.coppersurfer.tk%3A6969&amp;tr=udp%3A%2F%2Fexodus.desync.com%3A6969","seeders":0,"leechers":1,"uploader":"CATRIX02","files":1,"time":1379354731,"description":"Complete name         :The Barbarian and the Geisha.mp4.dvd.rip\nFormat                                   : MPEG-4\nFormat profile                           : Base Media\nCodec ID                                 : isom\nFile size                                : 958 MiB\nDuration                                 : 1h 40mn\nOverall bit rate                         : 1 331 Kbps\nMovie name                               : THE_BARBARIAN_AND_THE_GEISHA_\nGenre                                    : Historical_Romance_Classic\nWriting application                      : Lavf54.46.100\n\nID                                       : 1\nFormat                                   : MPEG-4 Visual\nFormat settings, BVOP                    : No\nFormat settings, QPel                    : No\nFormat settings, GMC                     : No warppoints\nFormat settings, Matrix                  : Default (H.263)\nCodec ID                                 : 20\nDuration                                 : 1h 40mn\nBit rate mode                            : Constant\nBit rate                                 : 1 198 Kbps\nWidth                                    : 720 pixels\nHeight                                   : 406 pixels\nDisplay aspect ratio                     : 16:9\nFrame rate mode                          : Constant\nFrame rate                               : 23.976 fps\nColor space                              : YUV\nChroma subsampling                       : 4:2:0\nBit depth                                : 8 bits\nScan type                                : Progressive\nCompression mode                         : Lossy\nBits/(Pixel*Frame)                       : 0.171\nStream size                              : 862 MiB (90%)\nWriting library                          : Lavc54.79.100\n\nID                                       : 1\nFormat                                   : MPEG-4 Visual\nFormat settings, BVOP                    : No\nFormat settings, QPel                    : No\nFormat settings, GMC                     : No warppoints\nFormat settings, Matrix                  : Default (H.263)\nCodec ID                                 : 20\nDuration                                 : 1h 40mn\nBit rate mode                            : Constant\nBit rate                                 : 1 198 Kbps\nWidth                                    : 720 pixels\nHeight                                   : 406 pixels\nDisplay aspect ratio                     : 16:9\nFrame rate mode                          : Constant\nFrame rate                               : 23.976 fps\nColor space                              : YUV\nChroma subsampling                       : 4:2:0\nBit depth                                : 8 bits\nScan type                                : Progressive\nCompression mode                         : Lossy\nBits/(Pixel*Frame)                       : 0.171\nStream size                              : 862 MiB (90%)\nWriting library                          : Lavc54.79.100","torrent":{"xt":"urn:btih:4c335ee20e612f7c499a0d707c460c436313b30b","amp;dn":"The+Barbarian+and+the+Geisha.mp4.dvd.rip","amp;tr":["udp%3A%2F%2Ftracker.openbittorrent.com%3A80","udp%3A%2F%2Fopen.demonii.com%3A1337","udp%3A%2F%2Ftracker.coppersurfer.tk%3A6969","udp%3A%2F%2Fexodus.desync.com%3A6969"],"infoHash":"4c335ee20e612f7c499a0d707c460c436313b30b","infoHashBuffer":{"type":"Buffer","data":[76,51,94,226,14,97,47,124,73,154,13,112,124,70,12,67,99,19,179,11]},"announce":[],"urlList":[]}}